<?xml version="1.0" encoding="UTF-8" standalone="no"?>
<svg width="130px" height="32px" viewBox="0 0 130 32" version="1.1" xmlns="http://www.w3.org/2000/svg" xmlns:xlink="http://www.w3.org/1999/xlink">
    <!-- Generator: Sketch 3.6.1 (26313) - http://www.bohemiancoding.com/sketch -->
    <title>komoot-logo-type</title>
    <desc>Created with Sketch.</desc>
    <defs>
        <linearGradient x1="50%" y1="0%" x2="50%" y2="100%" id="linearGradient-1">
            <stop stop-color="#93D759" offset="0%"></stop>
            <stop stop-color="#78B34A" offset="100%"></stop>
        </linearGradient>
    </defs>
    <g id="Page-1" stroke="none" stroke-width="1" fill="none" fill-rule="evenodd">
        <g id="komoot-logo-type">
            <path d="M92.1635334,20.0092907 C90.5575815,20.0092907 89.2558489,18.6580797 89.2558489,16.9916224 C89.2558489,15.3251651 90.5575815,13.9739541 92.1635334,13.9739541 C93.7694853,13.9739541 95.0712178,15.3251651 95.0712178,16.9916224 C95.0712178,18.6580797 93.7694853,20.0092907 92.1635334,20.0092907 M92.1635334,10.9834623 C88.7778429,10.9834623 86.0328287,13.6735642 86.0328287,16.9916224 C86.0328287,20.310043 88.7778429,22.9997826 92.1635334,22.9997826 C95.5495944,22.9997826 98.294238,20.310043 98.294238,16.9916224 C98.294238,13.6735642 95.5495944,10.9834623 92.1635334,10.9834623 Z M57.5665347,10.9836797 C54.1808442,10.9836797 51.43583,13.6734193 51.43583,16.9918398 C51.43583,20.309898 54.1808442,23 57.5665347,23 C60.9525957,23 63.6972394,20.309898 63.6972394,16.9918398 C63.6972394,13.6734193 60.9525957,10.9836797 57.5665347,10.9836797 Z M106.165589,10.9834623 C102.779898,10.9834623 100.034884,13.6735642 100.034884,16.9916224 C100.034884,20.310043 102.779898,22.9997826 106.165589,22.9997826 C109.55165,22.9997826 112.296293,20.310043 112.296293,16.9916224 C112.296293,13.6735642 109.55165,10.9834623 106.165589,10.9834623 Z M51.2249886,11.3176958 L47.0641133,11.3176958 L43.2808256,15.8887676 L43.2808256,8 L40,8 L40,22.7125823 L43.2819372,22.7125823 L43.2819372,17.8451066 C43.2819372,17.8451066 47.5332261,22.7165682 47.6262335,22.7165682 C48.3613993,22.7187423 51.7074412,22.7165682 51.7074412,22.7165682 L46.2455743,16.7189162 L51.2249886,11.3176958 Z M121.340796,20.1602104 C120.108727,20.3674758 119.409875,19.8837357 119.118995,19.5855199 C118.819963,19.2786077 118.598005,18.7865335 118.598005,18.4636778 L118.598005,14.020154 L121.659838,14.020154 L121.659838,11.3336756 L118.598005,11.3336756 L118.598005,8.23302864 L115.351641,8.23302864 L115.351641,11.3336756 L113.134656,11.3336756 L113.134656,14.020154 L115.351641,14.020154 L115.351641,18.4636778 C115.351641,20.9581097 117.427076,22.9876438 119.977924,22.9876438 C119.977924,22.9876438 121.168121,23.0307637 122,22.6930515 L121.340796,20.1602104 Z M69.0976695,22.6930153 C69.0976695,22.6930153 69.0880353,18.2382586 69.0976695,16.8022572 C69.1002633,16.4283098 69.1458406,16.0659577 69.2284727,15.7246221 C69.399295,15.0169484 69.6909157,14.5136413 70.3075063,14.2288326 C70.6950988,14.0494683 71.1371617,13.9788096 71.6574101,14.0096096 C72.3481102,14.0516424 72.8072183,14.3603664 73.0614137,14.9528121 C73.2414997,15.3742276 73.2659558,15.8289795 73.2663263,16.2188703 C73.2678085,17.820829 73.267438,22.6930153 73.267438,22.6930153 L76.4411754,22.6930153 L76.4415459,16.8000831 C76.4415459,16.3246771 76.5015746,15.9134075 76.6249668,15.5430837 C76.8624876,14.8317865 77.2715718,14.3759476 77.8755639,14.1498398 C78.3469,13.9737367 78.7978561,13.9501838 79.3347791,14.0795435 C79.7698016,14.1842633 80.0892133,14.4230533 80.3119122,14.808596 C80.5283118,15.1843551 80.6454048,15.6256999 80.6476281,16.1199482 C80.6561507,17.7349515 80.6476281,22.6930153 80.6476281,22.6930153 L83.8976982,22.6930153 L83.8976982,16.263802 C83.8976982,15.9083346 83.879912,15.5369237 83.8473038,15.1278282 C83.7802347,14.2864466 83.5749515,13.5693518 83.2207084,12.9352356 C82.7475195,12.0895058 82.0353276,11.5231495 81.1037718,11.2528348 C80.2933849,11.0176683 79.4259337,10.9825201 78.5258744,11.147028 C77.6180335,11.3133476 76.8665637,11.7318643 76.2925859,12.3913451 C76.1462198,12.5598388 76.0113406,12.7406525 75.8805374,12.9156686 C75.8712737,12.9283509 75.8616395,12.9410332 75.8520052,12.9537156 C75.5181421,12.3123523 75.0501409,11.8340476 74.4598591,11.5311212 C73.5360848,11.0571647 72.5063339,10.928892 71.3109484,11.1386939 C70.2430311,11.3256676 69.5219461,11.8615863 68.9505622,12.7330431 L68.5503712,11.3372628 L65.8238843,11.3372628 L65.8238843,22.6930153 L69.0976695,22.6930153 Z M57.5665347,19.9892164 C55.9605828,19.9892164 54.6588502,18.6470642 54.6588502,16.9918398 C54.6588502,15.3362531 55.9605828,13.9941009 57.5665347,13.9941009 C59.1724866,13.9941009 60.4742192,15.3362531 60.4742192,16.9918398 C60.4742192,18.6470642 59.1724866,19.9892164 57.5665347,19.9892164 Z M106.165589,20.0092907 C104.559637,20.0092907 103.257904,18.6580797 103.257904,16.9916224 C103.257904,15.3251651 104.559637,13.9739541 106.165589,13.9739541 C107.77154,13.9739541 109.073273,15.3251651 109.073273,16.9916224 C109.073273,18.6580797 107.77154,20.0092907 106.165589,20.0092907 Z" id="type" fill="#FFFFFF"></path>
            <circle id="Oval-2" fill="#FFFFFF" cx="16" cy="16" r="16"></circle>
            <path d="M2,15.9998667 C2,19.2767829 3.12918059,22.2881977 5.01514676,24.6734451 L5.01514676,24.6734451 L12.1796856,17.5089062 C11.9946877,17.0413465 11.8899266,16.533002 11.8899266,15.9998667 L11.8899266,15.9998667 C11.8899266,13.7297766 13.7300431,11.88966 15.9998667,11.88966 L15.9998667,11.88966 C18.2699569,11.88966 20.1100734,13.7297766 20.1100734,15.9998667 L20.1100734,15.9998667 C20.1100734,16.533002 20.0053123,17.0413465 19.8203144,17.5089062 L19.8203144,17.5089062 L26.9845867,24.6734451 C28.8708194,22.2881977 30,19.2767829 30,15.9998667 L30,15.9998667 C30,8.26807186 23.7319281,2 15.9998667,2 L15.9998667,2 C8.26807186,2 2,8.26807186 2,15.9998667 M13.3315245,19.1179086 L6.33199097,26.1177087 C8.8454574,28.5202829 12.2487267,29.9994669 15.9998667,29.9994669 L15.9998667,29.9994669 C19.7512733,29.9994669 23.1545426,28.5202829 25.668009,26.1177087 L25.668009,26.1177087 L18.668209,19.1179086 C18.5943697,19.1810851 15.9998667,14.939194 15.9998667,14.939194 L15.9998667,14.939194 C15.9998667,14.939194 13.4053637,19.1810851 13.3315245,19.1179086" id="Fill-4" fill="url(#linearGradient-1)"></path>
        </g>
    </g>
</svg>